# xmcd
#
# Track frame offsets:
# 150
# 10476
# 21931
# 33146
# 44091
# 55821
# 67899
# 80699
# 91927
# 102448
#
# Disc length: 1505 seconds
#
#
# Revision: 1
# Processed by: cddbd v1.5.1PL2 Copyright (c) Steve Scherf et al.
# Submitted via: FreeRIP 2.945 
#
DISCID=7c05df0a
DTITLE=Don Reno and Red Smiley - God's Record Book Of Life
DYEAR=2003
DGENRE=Gospel
TTITLE0=God's Record Book oO Life
TTITLE1=A Rose On God's Shore
TTITLE2=Hear Jerusalem Mourn
TTITLE3=Kneel Down
TTITLE4=Let In The Guiding Light
TTITLE5=Springtime In Heaven
TTITLE6=Jesus Answers My Prayer
TTITLE7=Make Believe Heaven
TTITLE8=Brighter Mansion
TTITLE9=I'll Trade My Cross For A Crown
EXTD=King Records
EXTT0=
EXTT1=
EXTT2=
EXTT3=
EXTT4=
EXTT5=
EXTT6=
EXTT7=
EXTT8=
EXTT9=
PLAYORDER=
